<svg xmlns="http://www.w3.org/2000/svg" fill="#fefefe" viewBox="0 0 69 25">
    <path data-v-1310d8d4="" d="M21,0.4c0.2,0,0.4,0.1,0.4,0.4v0.8c0,0.2-0.1,0.4-0.4,0.4c-1.2,0-1.8,1-1.8,2.4v14.6 c0,0.2-0.1,0.4-0.4,0.4h-1.7c-0.2,0-0.3-0.1-0.5-0.2L4.7,5.3v10c0,1.4,0.6,2.4,1.8,2.4c0.2,0,0.4,0.1,0.4,0.4v0.8 c0,0.2-0.1,0.4-0.4,0.4H0.4c-0.2,0-0.4-0.1-0.4-0.4v-0.8c0-0.2,0.1-0.4,0.4-0.4c1.2,0,1.8-1,1.8-2.4V2.5C1.7,2.1,1.3,1.9,0.6,1.9 c-0.2,0-0.4-0.1-0.4-0.4V0.8c0-0.2,0.1-0.4,0.4-0.4H5c0.2,0,0.3,0.1,0.5,0.2l11.2,12.8V4.3c0-1.4-0.6-2.4-1.8-2.4 c-0.2,0-0.4-0.1-0.4-0.4V0.7c0-0.2,0.1-0.4,0.4-0.4H21z" />
    <path data-v-1310d8d4="" d="M34.8,14.1c0,1.3,0.1,2.7,1.5,2.9c0.2,0,0.3,0.2,0.3,0.3v0.9c0,0.2-0.1,0.3-0.4,0.3 c-2.5,0-3.5,0.5-4.6,1c0,0-0.1,0.1-0.2,0.1h-0.1c0,0,0,0,0-0.1l0.4-3.2c-0.7,1.4-2.2,3.2-4.5,3.2c-3.6,0-4.3-2.4-4.3-4.8v-4.1 c0-1.4-0.6-2.4-1.8-2.4H21c-0.2,0-0.4-0.1-0.4-0.4V7c0-0.2,0.1-0.4,0.4-0.4l0.1,0h5c0.2,0,0.4,0.1,0.4,0.4v7.3c0,1.4-0.1,3,1.8,3 c1.2,0,2.6-1.1,3.1-2.1v-4.6c0-1.4-0.6-2.4-1.8-2.4h-0.1C29.2,8.2,29,8,29,7.8V7c0-0.2,0.1-0.4,0.4-0.4h5c0.2,0,0.4,0.1,0.4,0.4 V14.1z" />
    <path data-v-1310d8d4="" d="M41.2,11.2c0,1.5,0.6,3.3,2.4,3.3c1.9,0,2.3-1.9,2.3-3.3c0-1.5-0.4-3.3-2.3-3.3 C41.7,7.8,41.2,9.7,41.2,11.2L41.2,11.2z M47.4,21.6c0-1.1-1.5-1.3-4-1.4c-0.9,0-1.7-0.2-2.3-0.3c-0.5,0.3-0.7,0.8-0.7,1.3 c0,0.8,0.7,1.7,3.2,1.7C46,22.9,47.4,22.4,47.4,21.6L47.4,21.6z M50,5.9c0.2,0,0.3,0.1,0.3,0.4c0.1,1.6-0.7,2.6-1.8,2.6 c0.4,0.7,0.6,1.5,0.6,2.3c0,2.7-2.1,4.8-5.5,4.8c-1.2,0-2.2-0.3-3-0.7c-0.2,0.2-0.3,0.4-0.3,0.6c0,0.8,0.6,1.1,3.7,1.3 c2.9,0.2,5.8,0.7,5.8,3.7c0,2.7-3.3,3.7-6.3,3.7c-3.1,0-5.7-1-5.7-3.1c0-1.1,0.6-1.9,1.5-2.4c-0.9-0.6-1.3-1.3-1.3-2.3 c0-1.1,0.6-1.9,1.6-2.3c-1-0.9-1.5-2.1-1.5-3.4c0-2.7,2.1-4.8,5.5-4.8c1.4,0,2.6,0.4,3.5,1l0.1,0c0.1,0,0.2,0,0.2,0 c0.2,0,0.5-0.1,0.4-0.6l0-0.1c0-0.2,0.1-0.3,0.3-0.4l1.7-0.4L50,5.9z" />
    <path data-v-1310d8d4="" d="M61,10.6c-0.1,0-0.1,0.1-0.2,0.1c-0.1,0-0.2-0.1-0.3-0.2C59,8.6,57.2,7.9,56,7.9 c-0.9,0-1.8,0.3-1.8,1.3c0,1.1,1.4,1.5,2.8,1.9c2.3,0.6,5.7,1.3,5.7,4.4c0,2.3-2,4.1-5.3,4.1c-1,0-2-0.2-2.9-0.7 c-0.1,0-0.2-0.1-0.2-0.1c-0.2,0-0.2,0.1-0.1,0.4c0,0.1,0,0.1,0,0.2c0,0.1-0.1,0.2-0.3,0.2H53c-0.2,0-0.3-0.1-0.4-0.3l-2.2-4.1 c0-0.1-0.1-0.2-0.1-0.2c0-0.1,0.1-0.2,0.2-0.3l0.8-0.5c0.1,0,0.1-0.1,0.2-0.1c0.1,0,0.2,0.1,0.3,0.2c1.6,2.5,3.6,3.4,5.7,3.4 c1.5,0,2.4-0.5,2.4-1.4c0-1.3-2.1-1.8-3.8-2.3c-4.1-1.2-4.8-2.7-4.8-4.4c0-2,1.7-3.4,4.3-3.4c1.6,0,2.9,0.6,3.3,0.8c0,0,0.1,0,0.1,0 c0.1,0,0.1-0.3,0-0.5c0-0.1,0-0.1,0-0.2c0-0.2,0.1-0.3,0.3-0.3h0.7c0.2,0,0.4,0.1,0.4,0.3l1.3,3.2c0,0.1,0.1,0.2,0.1,0.2 c0,0.1-0.1,0.2-0.2,0.3L61,10.6z" />
    <path data-v-1310d8d4="" d="M65.6,15.3c0.3-0.3,0.6-0.5,1-0.5c0.3,0,0.7,0.2,1,0.5l1,1c0.3,0.3,0.5,0.6,0.5,1 c0,0.3-0.2,0.7-0.5,1l-1,1c-0.3,0.3-0.6,0.5-1,0.5c-0.3,0-0.7-0.2-1-0.5l-1-1c-0.3-0.3-0.5-0.6-0.5-1c0-0.3,0.2-0.7,0.5-1L65.6,15.3 z" />
</svg>